<mxfile host="app.diagrams.net" modified="2023-06-17T12:33:31.128Z" agent="Mozilla/5.0 (X11; Linux x86_64) AppleWebKit/537.36 (KHTML, like Gecko) Chrome/114.0.0.0 Safari/537.36" etag="f5-sY7mmky9DHGGEftW8" version="21.4.0" type="device">
  <diagram name="Page-1" id="64c3da0e-402f-94eb-ee01-a36477274f13">
    <mxGraphModel dx="1736" dy="1729" grid="1" gridSize="10" guides="1" tooltips="1" connect="1" arrows="1" fold="1" page="1" pageScale="1" pageWidth="1169" pageHeight="826" background="none" math="0" shadow="0">
      <root>
        <mxCell id="0" />
        <mxCell id="1" parent="0" />
        <mxCell id="2" value="ft_scop&#xa;hypothèse : SAS" style="whiteSpace=wrap;rounded=1;shadow=1;fillColor=#10739E;strokeColor=none;fontColor=#FFFFFF;fontStyle=1;fontSize=24" parent="1" vertex="1">
          <mxGeometry x="810" y="-730" width="340" height="60" as="geometry" />
        </mxCell>
        <mxCell id="3" value="Associés" style="whiteSpace=wrap;rounded=1;fillColor=#F2931E;strokeColor=none;shadow=1;fontColor=#FFFFFF;fontStyle=1;fontSize=14" parent="1" vertex="1">
          <mxGeometry x="160" y="169.9999999999998" width="140" height="60" as="geometry" />
        </mxCell>
        <mxCell id="eSms9qF7fdGtt_-0Qu-M-239" value="" style="edgeStyle=orthogonalEdgeStyle;rounded=0;orthogonalLoop=1;jettySize=auto;html=1;" edge="1" parent="1" source="4" target="44">
          <mxGeometry relative="1" as="geometry" />
        </mxCell>
        <mxCell id="4" value="Non associés" style="whiteSpace=wrap;rounded=1;fillColor=#A66515;strokeColor=none;shadow=1;fontColor=#FFFFFF;fontStyle=1;fontSize=14" parent="1" vertex="1">
          <mxGeometry x="653" y="169.9999999999998" width="140" height="60" as="geometry" />
        </mxCell>
        <mxCell id="5" value="SUB-PROJECT 6" style="whiteSpace=wrap;rounded=1;fillColor=#F2931E;strokeColor=none;shadow=1;fontColor=#FFFFFF;fontStyle=1;fontSize=14" parent="1" vertex="1">
          <mxGeometry x="2010" y="169.9999999999998" width="140" height="60" as="geometry" />
        </mxCell>
        <mxCell id="10" value="Employés :&#xa;&gt;= 2" style="whiteSpace=wrap;rounded=1;fillColor=#12AAB5;strokeColor=none;shadow=1;fontColor=#FFFFFF;" parent="1" vertex="1">
          <mxGeometry x="65" y="300.0000000000001" width="120" height="60" as="geometry" />
        </mxCell>
        <mxCell id="12" value="Non employés :&#xa;- personnes physiques&#xa;- personne morale" style="whiteSpace=wrap;rounded=1;fillColor=#12AAB5;strokeColor=none;shadow=1;fontColor=#FFFFFF;" parent="1" vertex="1">
          <mxGeometry x="265" y="300.0000000000001" width="120" height="60" as="geometry" />
        </mxCell>
        <mxCell id="23" value="Part du capital :&#xa;&gt;= 51%" style="whiteSpace=wrap;rounded=1;fillColor=#999999;strokeColor=none;shadow=1;fontColor=#FFFFFF;fontStyle=0" parent="1" vertex="1">
          <mxGeometry x="64.99999999999996" y="400.0000000000001" width="120" height="60" as="geometry" />
        </mxCell>
        <mxCell id="24" value="Droit de vote :&#xa;&gt;= 65%" style="whiteSpace=wrap;rounded=1;fillColor=#999999;strokeColor=none;shadow=1;fontColor=#FFFFFF;fontStyle=0" parent="1" vertex="1">
          <mxGeometry x="65.0000000000001" y="480.0000000000001" width="120" height="60" as="geometry" />
        </mxCell>
        <mxCell id="25" value="Parts sociales :&#xa;min 1/associés" style="whiteSpace=wrap;rounded=1;fillColor=#999999;strokeColor=none;shadow=1;fontColor=#FFFFFF;fontStyle=0" parent="1" vertex="1">
          <mxGeometry x="65.00000000000006" y="560.0000000000001" width="120" height="60" as="geometry" />
        </mxCell>
        <mxCell id="38" value="Part du capital :&#xa;&lt;= 49%" style="whiteSpace=wrap;rounded=1;fillColor=#999999;strokeColor=none;shadow=1;fontColor=#FFFFFF;fontStyle=0" parent="1" vertex="1">
          <mxGeometry x="264.9999999999996" y="400.0000000000001" width="120" height="60" as="geometry" />
        </mxCell>
        <mxCell id="39" value="Droit de vote :&#xa;&lt;= 49%&#xa;&lt;= 35% si non scop    " style="whiteSpace=wrap;rounded=1;fillColor=#999999;strokeColor=none;shadow=1;fontColor=#FFFFFF;fontStyle=0" parent="1" vertex="1">
          <mxGeometry x="264.9999999999998" y="480.0000000000001" width="120" height="60" as="geometry" />
        </mxCell>
        <mxCell id="40" value="Parts sociales :&#xa;min 1/associés" style="whiteSpace=wrap;rounded=1;fillColor=#999999;strokeColor=none;shadow=1;fontColor=#FFFFFF;fontStyle=0" parent="1" vertex="1">
          <mxGeometry x="264.9999999999997" y="560.0000000000001" width="120" height="60" as="geometry" />
        </mxCell>
        <mxCell id="43" value="Employés" style="whiteSpace=wrap;rounded=1;fillColor=#12AAB5;strokeColor=none;shadow=1;fontColor=#FFFFFF;" parent="1" vertex="1">
          <mxGeometry x="562.9999999999998" y="300.0000000000001" width="120" height="60" as="geometry" />
        </mxCell>
        <mxCell id="44" value="Personnes physiques ou morales" style="whiteSpace=wrap;rounded=1;fillColor=#12AAB5;strokeColor=none;shadow=1;fontColor=#FFFFFF;" parent="1" vertex="1">
          <mxGeometry x="762.9999999999998" y="300.0000000000001" width="120" height="60" as="geometry" />
        </mxCell>
        <mxCell id="45" value="Part du capital :&#xa;0%" style="whiteSpace=wrap;rounded=1;fillColor=#999999;strokeColor=none;shadow=1;fontColor=#FFFFFF;fontStyle=0" parent="1" vertex="1">
          <mxGeometry x="562.9999999999998" y="400.0000000000001" width="120" height="60" as="geometry" />
        </mxCell>
        <mxCell id="46" value="Droit de vote :&#xa;0" style="whiteSpace=wrap;rounded=1;fillColor=#999999;strokeColor=none;shadow=1;fontColor=#FFFFFF;fontStyle=0" parent="1" vertex="1">
          <mxGeometry x="562.9999999999999" y="480.0000000000001" width="120" height="60" as="geometry" />
        </mxCell>
        <mxCell id="47" value="Parts sociales :" style="whiteSpace=wrap;rounded=1;fillColor=#999999;strokeColor=none;shadow=1;fontColor=#FFFFFF;fontStyle=0" parent="1" vertex="1">
          <mxGeometry x="562.9999999999998" y="560.0000000000001" width="120" height="60" as="geometry" />
        </mxCell>
        <mxCell id="103" value="" style="edgeStyle=elbowEdgeStyle;elbow=vertical;rounded=0;fontColor=#000000;endArrow=none;endFill=0;strokeWidth=8;strokeColor=#23445D;" parent="1" source="3" target="10" edge="1">
          <mxGeometry width="100" height="100" relative="1" as="geometry">
            <mxPoint x="20" y="290" as="sourcePoint" />
            <mxPoint x="120" y="190" as="targetPoint" />
          </mxGeometry>
        </mxCell>
        <mxCell id="104" value="" style="edgeStyle=elbowEdgeStyle;elbow=vertical;rounded=0;fontColor=#000000;endArrow=none;endFill=0;strokeWidth=8;strokeColor=#23445D;" parent="1" source="3" target="12" edge="1">
          <mxGeometry width="100" height="100" relative="1" as="geometry">
            <mxPoint x="360" y="290" as="sourcePoint" />
            <mxPoint x="460" y="190" as="targetPoint" />
          </mxGeometry>
        </mxCell>
        <mxCell id="105" value="" style="edgeStyle=elbowEdgeStyle;elbow=horizontal;rounded=0;fontColor=#000000;endArrow=none;endFill=0;strokeWidth=8;strokeColor=#23445D;" parent="1" source="10" target="23" edge="1">
          <mxGeometry width="100" height="100" relative="1" as="geometry">
            <mxPoint x="5" y="480" as="sourcePoint" />
            <mxPoint x="105" y="380" as="targetPoint" />
            <Array as="points">
              <mxPoint x="45" y="380" />
            </Array>
          </mxGeometry>
        </mxCell>
        <mxCell id="106" value="" style="edgeStyle=elbowEdgeStyle;elbow=horizontal;rounded=0;fontColor=#000000;endArrow=none;endFill=0;strokeWidth=8;strokeColor=#23445D;" parent="1" source="10" target="24" edge="1">
          <mxGeometry width="100" height="100" relative="1" as="geometry">
            <mxPoint x="75" y="340" as="sourcePoint" />
            <mxPoint x="75" y="440" as="targetPoint" />
            <Array as="points">
              <mxPoint x="45" y="400" />
            </Array>
          </mxGeometry>
        </mxCell>
        <mxCell id="110" value="" style="edgeStyle=elbowEdgeStyle;elbow=horizontal;rounded=0;fontColor=#000000;endArrow=none;endFill=0;strokeWidth=8;strokeColor=#23445D;" parent="1" source="10" target="25" edge="1">
          <mxGeometry width="100" height="100" relative="1" as="geometry">
            <mxPoint x="105" y="370" as="sourcePoint" />
            <mxPoint x="105" y="470" as="targetPoint" />
            <Array as="points">
              <mxPoint x="45" y="430" />
            </Array>
          </mxGeometry>
        </mxCell>
        <mxCell id="111" value="" style="edgeStyle=elbowEdgeStyle;elbow=horizontal;rounded=0;fontColor=#000000;endArrow=none;endFill=0;strokeWidth=8;strokeColor=#23445D;" parent="1" target="38" edge="1">
          <mxGeometry width="100" height="100" relative="1" as="geometry">
            <mxPoint x="255" y="330.0000000000004" as="sourcePoint" />
            <mxPoint x="255" y="430.0000000000004" as="targetPoint" />
            <Array as="points">
              <mxPoint x="245" y="380" />
            </Array>
          </mxGeometry>
        </mxCell>
        <mxCell id="112" value="" style="edgeStyle=elbowEdgeStyle;elbow=horizontal;rounded=0;fontColor=#000000;endArrow=none;endFill=0;strokeWidth=8;strokeColor=#23445D;" parent="1" source="12" target="39" edge="1">
          <mxGeometry width="100" height="100" relative="1" as="geometry">
            <mxPoint x="255" y="330.0000000000004" as="sourcePoint" />
            <mxPoint x="255" y="510.0000000000004" as="targetPoint" />
            <Array as="points">
              <mxPoint x="245" y="420" />
            </Array>
          </mxGeometry>
        </mxCell>
        <mxCell id="115" value="" style="edgeStyle=elbowEdgeStyle;elbow=horizontal;rounded=0;fontColor=#000000;endArrow=none;endFill=0;strokeWidth=8;strokeColor=#23445D;" parent="1" source="12" target="40" edge="1">
          <mxGeometry width="100" height="100" relative="1" as="geometry">
            <mxPoint x="255" y="330.0000000000004" as="sourcePoint" />
            <mxPoint x="255" y="590.0000000000003" as="targetPoint" />
            <Array as="points">
              <mxPoint x="245" y="460" />
            </Array>
          </mxGeometry>
        </mxCell>
        <mxCell id="116" value="" style="edgeStyle=elbowEdgeStyle;elbow=vertical;rounded=0;fontColor=#000000;endArrow=none;endFill=0;strokeWidth=8;strokeColor=#23445D;" parent="1" source="4" target="43" edge="1">
          <mxGeometry width="100" height="100" relative="1" as="geometry">
            <mxPoint x="363" y="239.99999999999977" as="sourcePoint" />
            <mxPoint x="263" y="310" as="targetPoint" />
          </mxGeometry>
        </mxCell>
        <mxCell id="117" value="" style="edgeStyle=elbowEdgeStyle;elbow=vertical;rounded=0;fontColor=#000000;endArrow=none;endFill=0;strokeWidth=8;strokeColor=#23445D;" parent="1" source="4" target="44" edge="1">
          <mxGeometry width="100" height="100" relative="1" as="geometry">
            <mxPoint x="363" y="239.99999999999977" as="sourcePoint" />
            <mxPoint x="463" y="310" as="targetPoint" />
          </mxGeometry>
        </mxCell>
        <mxCell id="118" value="" style="edgeStyle=elbowEdgeStyle;elbow=horizontal;rounded=0;fontColor=#000000;endArrow=none;endFill=0;strokeWidth=8;strokeColor=#23445D;" parent="1" source="43" target="45" edge="1">
          <mxGeometry width="100" height="100" relative="1" as="geometry">
            <mxPoint x="543" y="330.00000000000045" as="sourcePoint" />
            <mxPoint x="552.9999999999995" y="430" as="targetPoint" />
            <Array as="points">
              <mxPoint x="543" y="380" />
            </Array>
          </mxGeometry>
        </mxCell>
        <mxCell id="119" value="" style="edgeStyle=elbowEdgeStyle;elbow=horizontal;rounded=0;fontColor=#000000;endArrow=none;endFill=0;strokeWidth=8;strokeColor=#23445D;" parent="1" source="43" target="46" edge="1">
          <mxGeometry width="100" height="100" relative="1" as="geometry">
            <mxPoint x="553" y="330" as="sourcePoint" />
            <mxPoint x="552.9999999999998" y="510" as="targetPoint" />
            <Array as="points">
              <mxPoint x="543" y="420" />
            </Array>
          </mxGeometry>
        </mxCell>
        <mxCell id="122" value="" style="edgeStyle=elbowEdgeStyle;elbow=horizontal;rounded=0;fontColor=#000000;endArrow=none;endFill=0;strokeWidth=8;strokeColor=#23445D;" parent="1" source="43" target="47" edge="1">
          <mxGeometry width="100" height="100" relative="1" as="geometry">
            <mxPoint x="553" y="330" as="sourcePoint" />
            <mxPoint x="552.9999999999998" y="590" as="targetPoint" />
            <Array as="points">
              <mxPoint x="543" y="470" />
            </Array>
          </mxGeometry>
        </mxCell>
        <mxCell id="123" value="" style="edgeStyle=elbowEdgeStyle;elbow=horizontal;rounded=0;fontColor=#000000;endArrow=none;endFill=0;strokeWidth=8;strokeColor=#23445D;entryX=0;entryY=0.5;entryDx=0;entryDy=0;" parent="1" source="44" target="eSms9qF7fdGtt_-0Qu-M-241" edge="1">
          <mxGeometry width="100" height="100" relative="1" as="geometry">
            <mxPoint x="733" y="330.00000000000045" as="sourcePoint" />
            <mxPoint x="770" y="430" as="targetPoint" />
            <Array as="points">
              <mxPoint x="740" y="380" />
            </Array>
          </mxGeometry>
        </mxCell>
        <mxCell id="124" value="" style="edgeStyle=elbowEdgeStyle;elbow=horizontal;rounded=0;fontColor=#000000;endArrow=none;endFill=0;strokeWidth=8;strokeColor=#23445D;entryX=0;entryY=0.5;entryDx=0;entryDy=0;" parent="1" source="44" target="eSms9qF7fdGtt_-0Qu-M-242" edge="1">
          <mxGeometry width="100" height="100" relative="1" as="geometry">
            <mxPoint x="743" y="330" as="sourcePoint" />
            <mxPoint x="762.9999999999995" y="510" as="targetPoint" />
            <Array as="points">
              <mxPoint x="740" y="420" />
            </Array>
          </mxGeometry>
        </mxCell>
        <mxCell id="127" value="" style="edgeStyle=elbowEdgeStyle;elbow=horizontal;rounded=0;fontColor=#000000;endArrow=none;endFill=0;strokeWidth=8;strokeColor=#23445D;exitX=0;exitY=0.5;exitDx=0;exitDy=0;entryX=0;entryY=0.5;entryDx=0;entryDy=0;" parent="1" source="44" target="eSms9qF7fdGtt_-0Qu-M-243" edge="1">
          <mxGeometry width="100" height="100" relative="1" as="geometry">
            <mxPoint x="729.9999999999998" y="330.0000000000001" as="sourcePoint" />
            <mxPoint x="780" y="550" as="targetPoint" />
            <Array as="points">
              <mxPoint x="740" y="460" />
            </Array>
          </mxGeometry>
        </mxCell>
        <mxCell id="199" value="SUB-TASK 1" style="whiteSpace=wrap;rounded=1;fillColor=#12AAB5;strokeColor=none;shadow=1;fontColor=#FFFFFF;" parent="1" vertex="1">
          <mxGeometry x="1919.9999999999998" y="299.9999999999997" width="120" height="60" as="geometry" />
        </mxCell>
        <mxCell id="200" value="SUB-TASK 2" style="whiteSpace=wrap;rounded=1;fillColor=#12AAB5;strokeColor=none;shadow=1;fontColor=#FFFFFF;" parent="1" vertex="1">
          <mxGeometry x="2120" y="299.9999999999997" width="120" height="60" as="geometry" />
        </mxCell>
        <mxCell id="201" value="WORK&#xa;PACKAGE 1" style="whiteSpace=wrap;rounded=1;fillColor=#999999;strokeColor=none;shadow=1;fontColor=#FFFFFF;fontStyle=0" parent="1" vertex="1">
          <mxGeometry x="1919.9999999999998" y="399.9999999999997" width="120" height="60" as="geometry" />
        </mxCell>
        <mxCell id="202" value="WORK&#xa;PACKAGE 2" style="whiteSpace=wrap;rounded=1;fillColor=#999999;strokeColor=none;shadow=1;fontColor=#FFFFFF;fontStyle=0" parent="1" vertex="1">
          <mxGeometry x="1920" y="479.9999999999997" width="120" height="60" as="geometry" />
        </mxCell>
        <mxCell id="203" value="WORK&#xa;PACKAGE 3" style="whiteSpace=wrap;rounded=1;fillColor=#999999;strokeColor=none;shadow=1;fontColor=#FFFFFF;fontStyle=0" parent="1" vertex="1">
          <mxGeometry x="1919.9999999999998" y="559.9999999999997" width="120" height="60" as="geometry" />
        </mxCell>
        <mxCell id="204" value="WORK&#xa;PACKAGE 4" style="whiteSpace=wrap;rounded=1;fillColor=#999999;strokeColor=none;shadow=1;fontColor=#FFFFFF;fontStyle=0" parent="1" vertex="1">
          <mxGeometry x="1920" y="639.9999999999997" width="120" height="60" as="geometry" />
        </mxCell>
        <mxCell id="205" value="WORK&#xa;PACKAGE 5" style="whiteSpace=wrap;rounded=1;fillColor=#999999;strokeColor=none;shadow=1;fontColor=#FFFFFF;fontStyle=0" parent="1" vertex="1">
          <mxGeometry x="1920" y="719.9999999999997" width="120" height="60" as="geometry" />
        </mxCell>
        <mxCell id="206" value="WORK&#xa;PACKAGE 1" style="whiteSpace=wrap;rounded=1;fillColor=#999999;strokeColor=none;shadow=1;fontColor=#FFFFFF;fontStyle=0" parent="1" vertex="1">
          <mxGeometry x="2119.999999999999" y="399.9999999999997" width="120" height="60" as="geometry" />
        </mxCell>
        <mxCell id="207" value="WORK&#xa;PACKAGE 2" style="whiteSpace=wrap;rounded=1;fillColor=#999999;strokeColor=none;shadow=1;fontColor=#FFFFFF;fontStyle=0" parent="1" vertex="1">
          <mxGeometry x="2119.9999999999995" y="479.9999999999997" width="120" height="60" as="geometry" />
        </mxCell>
        <mxCell id="208" value="WORK&#xa;PACKAGE 3" style="whiteSpace=wrap;rounded=1;fillColor=#999999;strokeColor=none;shadow=1;fontColor=#FFFFFF;fontStyle=0" parent="1" vertex="1">
          <mxGeometry x="2119.9999999999995" y="559.9999999999997" width="120" height="60" as="geometry" />
        </mxCell>
        <mxCell id="209" value="WORK&#xa;PACKAGE 4" style="whiteSpace=wrap;rounded=1;fillColor=#999999;strokeColor=none;shadow=1;fontColor=#FFFFFF;fontStyle=0" parent="1" vertex="1">
          <mxGeometry x="2119.9999999999995" y="639.9999999999997" width="120" height="60" as="geometry" />
        </mxCell>
        <mxCell id="210" value="WORK&#xa;PACKAGE 5" style="whiteSpace=wrap;rounded=1;fillColor=#999999;strokeColor=none;shadow=1;fontColor=#FFFFFF;fontStyle=0" parent="1" vertex="1">
          <mxGeometry x="2120" y="719.9999999999997" width="120" height="60" as="geometry" />
        </mxCell>
        <mxCell id="211" value="" style="edgeStyle=elbowEdgeStyle;elbow=horizontal;rounded=0;fontColor=#000000;endArrow=none;endFill=0;strokeWidth=8;strokeColor=#23445D;" parent="1" source="199" target="201" edge="1">
          <mxGeometry width="100" height="100" relative="1" as="geometry">
            <mxPoint x="1900" y="330.00000000000006" as="sourcePoint" />
            <mxPoint x="1909.9999999999995" y="429.9999999999996" as="targetPoint" />
            <Array as="points">
              <mxPoint x="1900" y="379.9999999999996" />
            </Array>
          </mxGeometry>
        </mxCell>
        <mxCell id="212" value="" style="edgeStyle=elbowEdgeStyle;elbow=horizontal;rounded=0;fontColor=#000000;endArrow=none;endFill=0;strokeWidth=8;strokeColor=#23445D;" parent="1" source="199" target="202" edge="1">
          <mxGeometry width="100" height="100" relative="1" as="geometry">
            <mxPoint x="1910" y="329.9999999999996" as="sourcePoint" />
            <mxPoint x="1909.9999999999998" y="509.9999999999996" as="targetPoint" />
            <Array as="points">
              <mxPoint x="1900" y="419.9999999999996" />
            </Array>
          </mxGeometry>
        </mxCell>
        <mxCell id="213" value="" style="edgeStyle=elbowEdgeStyle;elbow=horizontal;rounded=0;fontColor=#000000;endArrow=none;endFill=0;strokeWidth=8;strokeColor=#23445D;" parent="1" source="199" target="205" edge="1">
          <mxGeometry width="100" height="100" relative="1" as="geometry">
            <mxPoint x="1910" y="329.9999999999996" as="sourcePoint" />
            <mxPoint x="1910" y="749.9999999999995" as="targetPoint" />
            <Array as="points">
              <mxPoint x="1900" y="549.9999999999995" />
            </Array>
          </mxGeometry>
        </mxCell>
        <mxCell id="214" value="" style="edgeStyle=elbowEdgeStyle;elbow=horizontal;rounded=0;fontColor=#000000;endArrow=none;endFill=0;strokeWidth=8;strokeColor=#23445D;" parent="1" source="199" target="204" edge="1">
          <mxGeometry width="100" height="100" relative="1" as="geometry">
            <mxPoint x="1910" y="329.9999999999996" as="sourcePoint" />
            <mxPoint x="1910" y="669.9999999999995" as="targetPoint" />
            <Array as="points">
              <mxPoint x="1900" y="499.9999999999996" />
            </Array>
          </mxGeometry>
        </mxCell>
        <mxCell id="215" value="" style="edgeStyle=elbowEdgeStyle;elbow=horizontal;rounded=0;fontColor=#000000;endArrow=none;endFill=0;strokeWidth=8;strokeColor=#23445D;" parent="1" source="199" target="203" edge="1">
          <mxGeometry width="100" height="100" relative="1" as="geometry">
            <mxPoint x="1910" y="329.9999999999996" as="sourcePoint" />
            <mxPoint x="1909.9999999999998" y="589.9999999999995" as="targetPoint" />
            <Array as="points">
              <mxPoint x="1900" y="469.9999999999996" />
            </Array>
          </mxGeometry>
        </mxCell>
        <mxCell id="216" value="" style="edgeStyle=elbowEdgeStyle;elbow=horizontal;rounded=0;fontColor=#000000;endArrow=none;endFill=0;strokeWidth=8;strokeColor=#23445D;" parent="1" source="200" target="206" edge="1">
          <mxGeometry width="100" height="100" relative="1" as="geometry">
            <mxPoint x="2090" y="330.00000000000006" as="sourcePoint" />
            <mxPoint x="2099.9999999999995" y="429.9999999999996" as="targetPoint" />
            <Array as="points">
              <mxPoint x="2100" y="379.9999999999996" />
            </Array>
          </mxGeometry>
        </mxCell>
        <mxCell id="217" value="" style="edgeStyle=elbowEdgeStyle;elbow=horizontal;rounded=0;fontColor=#000000;endArrow=none;endFill=0;strokeWidth=8;strokeColor=#23445D;" parent="1" source="200" target="207" edge="1">
          <mxGeometry width="100" height="100" relative="1" as="geometry">
            <mxPoint x="2100" y="329.9999999999996" as="sourcePoint" />
            <mxPoint x="2100" y="509.9999999999996" as="targetPoint" />
            <Array as="points">
              <mxPoint x="2100" y="419.9999999999996" />
            </Array>
          </mxGeometry>
        </mxCell>
        <mxCell id="218" value="" style="edgeStyle=elbowEdgeStyle;elbow=horizontal;rounded=0;fontColor=#000000;endArrow=none;endFill=0;strokeWidth=8;strokeColor=#23445D;" parent="1" source="200" target="210" edge="1">
          <mxGeometry width="100" height="100" relative="1" as="geometry">
            <mxPoint x="2100" y="329.9999999999996" as="sourcePoint" />
            <mxPoint x="2100" y="749.9999999999995" as="targetPoint" />
            <Array as="points">
              <mxPoint x="2100" y="539.9999999999995" />
            </Array>
          </mxGeometry>
        </mxCell>
        <mxCell id="219" value="" style="edgeStyle=elbowEdgeStyle;elbow=horizontal;rounded=0;fontColor=#000000;endArrow=none;endFill=0;strokeWidth=8;strokeColor=#23445D;" parent="1" source="200" target="209" edge="1">
          <mxGeometry width="100" height="100" relative="1" as="geometry">
            <mxPoint x="2100" y="329.9999999999996" as="sourcePoint" />
            <mxPoint x="2100" y="669.9999999999995" as="targetPoint" />
            <Array as="points">
              <mxPoint x="2100" y="499.9999999999996" />
            </Array>
          </mxGeometry>
        </mxCell>
        <mxCell id="220" value="" style="edgeStyle=elbowEdgeStyle;elbow=horizontal;rounded=0;fontColor=#000000;endArrow=none;endFill=0;strokeWidth=8;strokeColor=#23445D;" parent="1" source="200" target="208" edge="1">
          <mxGeometry width="100" height="100" relative="1" as="geometry">
            <mxPoint x="2100" y="329.9999999999996" as="sourcePoint" />
            <mxPoint x="2100" y="589.9999999999995" as="targetPoint" />
            <Array as="points">
              <mxPoint x="2100" y="469.9999999999996" />
            </Array>
          </mxGeometry>
        </mxCell>
        <mxCell id="227" value="" style="edgeStyle=elbowEdgeStyle;elbow=vertical;rounded=0;fontColor=#000000;endArrow=none;endFill=0;strokeWidth=8;strokeColor=#23445D;" parent="1" source="5" target="199" edge="1">
          <mxGeometry width="100" height="100" relative="1" as="geometry">
            <mxPoint x="1900" y="290" as="sourcePoint" />
            <mxPoint x="2000" y="190" as="targetPoint" />
          </mxGeometry>
        </mxCell>
        <mxCell id="228" value="" style="edgeStyle=elbowEdgeStyle;elbow=vertical;rounded=0;fontColor=#000000;endArrow=none;endFill=0;strokeWidth=8;strokeColor=#23445D;" parent="1" source="5" target="200" edge="1">
          <mxGeometry width="100" height="100" relative="1" as="geometry">
            <mxPoint x="2160" y="290" as="sourcePoint" />
            <mxPoint x="2260" y="190" as="targetPoint" />
          </mxGeometry>
        </mxCell>
        <mxCell id="229" value="" style="edgeStyle=elbowEdgeStyle;elbow=vertical;rounded=0;fontColor=#000000;endArrow=none;endFill=0;strokeWidth=8;strokeColor=#23445D;" parent="1" source="2" target="3" edge="1">
          <mxGeometry width="100" height="100" relative="1" as="geometry">
            <mxPoint x="540" y="140" as="sourcePoint" />
            <mxPoint x="640" y="40" as="targetPoint" />
            <Array as="points">
              <mxPoint x="620" y="120" />
            </Array>
          </mxGeometry>
        </mxCell>
        <mxCell id="234" value="" style="edgeStyle=elbowEdgeStyle;elbow=vertical;rounded=0;fontColor=#000000;endArrow=none;endFill=0;strokeWidth=8;strokeColor=#23445D;" parent="1" source="2" target="5" edge="1">
          <mxGeometry width="100" height="100" relative="1" as="geometry">
            <mxPoint x="590" y="190" as="sourcePoint" />
            <mxPoint x="690" y="90" as="targetPoint" />
            <Array as="points">
              <mxPoint x="1470" y="120" />
            </Array>
          </mxGeometry>
        </mxCell>
        <mxCell id="eSms9qF7fdGtt_-0Qu-M-240" value="" style="edgeStyle=elbowEdgeStyle;elbow=vertical;rounded=0;fontColor=#000000;endArrow=none;endFill=0;strokeWidth=8;strokeColor=#23445D;exitX=0.5;exitY=0;exitDx=0;exitDy=0;entryX=0.5;entryY=1;entryDx=0;entryDy=0;" edge="1" parent="1" source="4" target="2">
          <mxGeometry width="100" height="100" relative="1" as="geometry">
            <mxPoint x="610" y="240" as="sourcePoint" />
            <mxPoint x="710" y="310" as="targetPoint" />
            <Array as="points">
              <mxPoint x="860" y="120" />
            </Array>
          </mxGeometry>
        </mxCell>
        <mxCell id="eSms9qF7fdGtt_-0Qu-M-241" value="Part du capital :" style="whiteSpace=wrap;rounded=1;fillColor=#999999;strokeColor=none;shadow=1;fontColor=#FFFFFF;fontStyle=0" vertex="1" parent="1">
          <mxGeometry x="759.9999999999998" y="400.0000000000001" width="120" height="60" as="geometry" />
        </mxCell>
        <mxCell id="eSms9qF7fdGtt_-0Qu-M-244" value="" style="edgeStyle=orthogonalEdgeStyle;rounded=0;orthogonalLoop=1;jettySize=auto;html=1;" edge="1" parent="1" source="eSms9qF7fdGtt_-0Qu-M-242" target="46">
          <mxGeometry relative="1" as="geometry" />
        </mxCell>
        <mxCell id="eSms9qF7fdGtt_-0Qu-M-242" value="Droit de vote :" style="whiteSpace=wrap;rounded=1;fillColor=#999999;strokeColor=none;shadow=1;fontColor=#FFFFFF;fontStyle=0" vertex="1" parent="1">
          <mxGeometry x="759.9999999999999" y="480.0000000000001" width="120" height="60" as="geometry" />
        </mxCell>
        <mxCell id="eSms9qF7fdGtt_-0Qu-M-243" value="Parts sociales :" style="whiteSpace=wrap;rounded=1;fillColor=#999999;strokeColor=none;shadow=1;fontColor=#FFFFFF;fontStyle=0" vertex="1" parent="1">
          <mxGeometry x="759.9999999999998" y="560.0000000000001" width="120" height="60" as="geometry" />
        </mxCell>
        <mxCell id="eSms9qF7fdGtt_-0Qu-M-245" value="WORK&#xa;PACKAGE 5" style="whiteSpace=wrap;rounded=1;fillColor=#999999;strokeColor=none;shadow=1;fontColor=#FFFFFF;fontStyle=0" vertex="1" parent="1">
          <mxGeometry x="570" y="779.9999999999997" width="120" height="60" as="geometry" />
        </mxCell>
        <mxCell id="eSms9qF7fdGtt_-0Qu-M-247" value="Assemblée générale" style="whiteSpace=wrap;rounded=1;fillColor=#60a917;strokeColor=#2D7600;shadow=1;fontColor=#ffffff;fontStyle=1;fontSize=14" vertex="1" parent="1">
          <mxGeometry x="1060" y="-530" width="150" height="70" as="geometry" />
        </mxCell>
        <mxCell id="eSms9qF7fdGtt_-0Qu-M-249" value="SUB-TASK 2" style="whiteSpace=wrap;rounded=1;fillColor=#12AAB5;strokeColor=none;shadow=1;fontColor=#FFFFFF;" vertex="1" parent="1">
          <mxGeometry x="1370" y="299.9999999999997" width="120" height="60" as="geometry" />
        </mxCell>
        <mxCell id="eSms9qF7fdGtt_-0Qu-M-250" value="WORK&#xa;PACKAGE 1" style="whiteSpace=wrap;rounded=1;fillColor=#999999;strokeColor=none;shadow=1;fontColor=#FFFFFF;fontStyle=0" vertex="1" parent="1">
          <mxGeometry x="1169.9999999999998" y="399.9999999999997" width="120" height="60" as="geometry" />
        </mxCell>
        <mxCell id="eSms9qF7fdGtt_-0Qu-M-251" value="WORK&#xa;PACKAGE 2" style="whiteSpace=wrap;rounded=1;fillColor=#999999;strokeColor=none;shadow=1;fontColor=#FFFFFF;fontStyle=0" vertex="1" parent="1">
          <mxGeometry x="1170" y="479.9999999999997" width="120" height="60" as="geometry" />
        </mxCell>
        <mxCell id="eSms9qF7fdGtt_-0Qu-M-252" value="WORK&#xa;PACKAGE 3" style="whiteSpace=wrap;rounded=1;fillColor=#999999;strokeColor=none;shadow=1;fontColor=#FFFFFF;fontStyle=0" vertex="1" parent="1">
          <mxGeometry x="1169.9999999999998" y="559.9999999999997" width="120" height="60" as="geometry" />
        </mxCell>
        <mxCell id="eSms9qF7fdGtt_-0Qu-M-253" value="WORK&#xa;PACKAGE 4" style="whiteSpace=wrap;rounded=1;fillColor=#999999;strokeColor=none;shadow=1;fontColor=#FFFFFF;fontStyle=0" vertex="1" parent="1">
          <mxGeometry x="1170" y="639.9999999999997" width="120" height="60" as="geometry" />
        </mxCell>
        <mxCell id="eSms9qF7fdGtt_-0Qu-M-254" value="WORK&#xa;PACKAGE 5" style="whiteSpace=wrap;rounded=1;fillColor=#999999;strokeColor=none;shadow=1;fontColor=#FFFFFF;fontStyle=0" vertex="1" parent="1">
          <mxGeometry x="1170" y="719.9999999999997" width="120" height="60" as="geometry" />
        </mxCell>
        <mxCell id="eSms9qF7fdGtt_-0Qu-M-255" value="WORK&#xa;PACKAGE 1" style="whiteSpace=wrap;rounded=1;fillColor=#999999;strokeColor=none;shadow=1;fontColor=#FFFFFF;fontStyle=0" vertex="1" parent="1">
          <mxGeometry x="1369.999999999999" y="399.9999999999997" width="120" height="60" as="geometry" />
        </mxCell>
        <mxCell id="eSms9qF7fdGtt_-0Qu-M-256" value="WORK&#xa;PACKAGE 2" style="whiteSpace=wrap;rounded=1;fillColor=#999999;strokeColor=none;shadow=1;fontColor=#FFFFFF;fontStyle=0" vertex="1" parent="1">
          <mxGeometry x="1369.9999999999995" y="479.9999999999997" width="120" height="60" as="geometry" />
        </mxCell>
        <mxCell id="eSms9qF7fdGtt_-0Qu-M-257" value="WORK&#xa;PACKAGE 3" style="whiteSpace=wrap;rounded=1;fillColor=#999999;strokeColor=none;shadow=1;fontColor=#FFFFFF;fontStyle=0" vertex="1" parent="1">
          <mxGeometry x="1369.9999999999995" y="559.9999999999997" width="120" height="60" as="geometry" />
        </mxCell>
        <mxCell id="eSms9qF7fdGtt_-0Qu-M-258" value="WORK&#xa;PACKAGE 4" style="whiteSpace=wrap;rounded=1;fillColor=#999999;strokeColor=none;shadow=1;fontColor=#FFFFFF;fontStyle=0" vertex="1" parent="1">
          <mxGeometry x="1369.9999999999995" y="639.9999999999997" width="120" height="60" as="geometry" />
        </mxCell>
        <mxCell id="eSms9qF7fdGtt_-0Qu-M-259" value="WORK&#xa;PACKAGE 5" style="whiteSpace=wrap;rounded=1;fillColor=#999999;strokeColor=none;shadow=1;fontColor=#FFFFFF;fontStyle=0" vertex="1" parent="1">
          <mxGeometry x="1370" y="719.9999999999997" width="120" height="60" as="geometry" />
        </mxCell>
        <mxCell id="eSms9qF7fdGtt_-0Qu-M-265" value="" style="edgeStyle=elbowEdgeStyle;elbow=horizontal;rounded=0;fontColor=#000000;endArrow=none;endFill=0;strokeWidth=8;strokeColor=#23445D;" edge="1" parent="1" source="eSms9qF7fdGtt_-0Qu-M-249" target="eSms9qF7fdGtt_-0Qu-M-255">
          <mxGeometry width="100" height="100" relative="1" as="geometry">
            <mxPoint x="1340" y="330.00000000000006" as="sourcePoint" />
            <mxPoint x="1349.9999999999995" y="429.9999999999996" as="targetPoint" />
            <Array as="points">
              <mxPoint x="1350" y="379.9999999999996" />
            </Array>
          </mxGeometry>
        </mxCell>
        <mxCell id="eSms9qF7fdGtt_-0Qu-M-266" value="" style="edgeStyle=elbowEdgeStyle;elbow=horizontal;rounded=0;fontColor=#000000;endArrow=none;endFill=0;strokeWidth=8;strokeColor=#23445D;" edge="1" parent="1" source="eSms9qF7fdGtt_-0Qu-M-249" target="eSms9qF7fdGtt_-0Qu-M-256">
          <mxGeometry width="100" height="100" relative="1" as="geometry">
            <mxPoint x="1350" y="329.9999999999996" as="sourcePoint" />
            <mxPoint x="1350" y="509.99999999999955" as="targetPoint" />
            <Array as="points">
              <mxPoint x="1350" y="419.9999999999996" />
            </Array>
          </mxGeometry>
        </mxCell>
        <mxCell id="eSms9qF7fdGtt_-0Qu-M-267" value="" style="edgeStyle=elbowEdgeStyle;elbow=horizontal;rounded=0;fontColor=#000000;endArrow=none;endFill=0;strokeWidth=8;strokeColor=#23445D;" edge="1" parent="1" source="eSms9qF7fdGtt_-0Qu-M-249" target="eSms9qF7fdGtt_-0Qu-M-259">
          <mxGeometry width="100" height="100" relative="1" as="geometry">
            <mxPoint x="1350" y="329.9999999999996" as="sourcePoint" />
            <mxPoint x="1350" y="749.9999999999995" as="targetPoint" />
            <Array as="points">
              <mxPoint x="1350" y="539.9999999999995" />
            </Array>
          </mxGeometry>
        </mxCell>
        <mxCell id="eSms9qF7fdGtt_-0Qu-M-268" value="" style="edgeStyle=elbowEdgeStyle;elbow=horizontal;rounded=0;fontColor=#000000;endArrow=none;endFill=0;strokeWidth=8;strokeColor=#23445D;" edge="1" parent="1" source="eSms9qF7fdGtt_-0Qu-M-249" target="eSms9qF7fdGtt_-0Qu-M-258">
          <mxGeometry width="100" height="100" relative="1" as="geometry">
            <mxPoint x="1350" y="329.9999999999996" as="sourcePoint" />
            <mxPoint x="1350" y="669.9999999999995" as="targetPoint" />
            <Array as="points">
              <mxPoint x="1350" y="499.9999999999996" />
            </Array>
          </mxGeometry>
        </mxCell>
        <mxCell id="eSms9qF7fdGtt_-0Qu-M-269" value="" style="edgeStyle=elbowEdgeStyle;elbow=horizontal;rounded=0;fontColor=#000000;endArrow=none;endFill=0;strokeWidth=8;strokeColor=#23445D;" edge="1" parent="1" source="eSms9qF7fdGtt_-0Qu-M-249" target="eSms9qF7fdGtt_-0Qu-M-257">
          <mxGeometry width="100" height="100" relative="1" as="geometry">
            <mxPoint x="1350" y="329.9999999999996" as="sourcePoint" />
            <mxPoint x="1350" y="589.9999999999995" as="targetPoint" />
            <Array as="points">
              <mxPoint x="1350" y="469.9999999999996" />
            </Array>
          </mxGeometry>
        </mxCell>
        <mxCell id="eSms9qF7fdGtt_-0Qu-M-272" value="" style="edgeStyle=elbowEdgeStyle;elbow=vertical;rounded=0;fontColor=#000000;endArrow=none;endFill=0;strokeWidth=8;strokeColor=#23445D;entryX=0;entryY=0.5;entryDx=0;entryDy=0;exitX=0.5;exitY=1;exitDx=0;exitDy=0;" edge="1" parent="1" source="2" target="eSms9qF7fdGtt_-0Qu-M-247">
          <mxGeometry width="100" height="100" relative="1" as="geometry">
            <mxPoint x="460" y="100" as="sourcePoint" />
            <mxPoint x="2090" y="180" as="targetPoint" />
            <Array as="points">
              <mxPoint x="1020" y="-495" />
              <mxPoint x="1070" y="-500" />
            </Array>
          </mxGeometry>
        </mxCell>
        <mxCell id="eSms9qF7fdGtt_-0Qu-M-273" value="" style="edgeStyle=elbowEdgeStyle;elbow=vertical;rounded=0;fontColor=#000000;endArrow=none;endFill=0;strokeWidth=8;strokeColor=#23445D;entryX=0;entryY=0.5;entryDx=0;entryDy=0;exitX=0.5;exitY=1;exitDx=0;exitDy=0;" edge="1" parent="1" source="eSms9qF7fdGtt_-0Qu-M-247" target="eSms9qF7fdGtt_-0Qu-M-275">
          <mxGeometry width="100" height="100" relative="1" as="geometry">
            <mxPoint x="1210" y="-490" as="sourcePoint" />
            <mxPoint x="1190" y="-390.0000000000002" as="targetPoint" />
            <Array as="points">
              <mxPoint x="1150" y="-410" />
            </Array>
          </mxGeometry>
        </mxCell>
        <mxCell id="eSms9qF7fdGtt_-0Qu-M-275" value="Associés" style="whiteSpace=wrap;rounded=1;fillColor=#F2931E;strokeColor=none;shadow=1;fontColor=#FFFFFF;fontStyle=1;fontSize=14" vertex="1" parent="1">
          <mxGeometry x="1170" y="-440.0000000000002" width="140" height="60" as="geometry" />
        </mxCell>
        <mxCell id="eSms9qF7fdGtt_-0Qu-M-276" value="1 associé = 1 voix" style="whiteSpace=wrap;rounded=1;fillColor=#999999;strokeColor=none;shadow=1;fontColor=#FFFFFF;fontStyle=0" vertex="1" parent="1">
          <mxGeometry x="1230" y="-360" width="150" height="40" as="geometry" />
        </mxCell>
        <mxCell id="eSms9qF7fdGtt_-0Qu-M-277" value="" style="edgeStyle=elbowEdgeStyle;elbow=vertical;rounded=0;fontColor=#000000;endArrow=none;endFill=0;strokeWidth=8;strokeColor=#23445D;entryX=0;entryY=0.5;entryDx=0;entryDy=0;exitX=0.25;exitY=1;exitDx=0;exitDy=0;" edge="1" parent="1" source="eSms9qF7fdGtt_-0Qu-M-275" target="eSms9qF7fdGtt_-0Qu-M-276">
          <mxGeometry width="100" height="100" relative="1" as="geometry">
            <mxPoint x="1145" y="-450" as="sourcePoint" />
            <mxPoint x="1180" y="-380" as="targetPoint" />
            <Array as="points">
              <mxPoint x="1210" y="-340" />
            </Array>
          </mxGeometry>
        </mxCell>
        <mxCell id="eSms9qF7fdGtt_-0Qu-M-278" value="Procuration :&#xa;max 1/20 des voix&#xa;max 1 si  &lt;20 associés" style="whiteSpace=wrap;rounded=1;fillColor=#999999;strokeColor=none;shadow=1;fontColor=#FFFFFF;fontStyle=0" vertex="1" parent="1">
          <mxGeometry x="1230" y="-310" width="150" height="60" as="geometry" />
        </mxCell>
        <mxCell id="eSms9qF7fdGtt_-0Qu-M-279" value="" style="edgeStyle=elbowEdgeStyle;elbow=vertical;rounded=0;fontColor=#000000;endArrow=none;endFill=0;strokeWidth=8;strokeColor=#23445D;entryX=-0.007;entryY=0.55;entryDx=0;entryDy=0;exitX=0.25;exitY=1;exitDx=0;exitDy=0;entryPerimeter=0;" edge="1" parent="1" source="eSms9qF7fdGtt_-0Qu-M-275" target="eSms9qF7fdGtt_-0Qu-M-278">
          <mxGeometry width="100" height="100" relative="1" as="geometry">
            <mxPoint x="1215" y="-370" as="sourcePoint" />
            <mxPoint x="1240" y="-330" as="targetPoint" />
            <Array as="points">
              <mxPoint x="1240" y="-277" />
            </Array>
          </mxGeometry>
        </mxCell>
      </root>
    </mxGraphModel>
  </diagram>
</mxfile>
